<?xml version="1.0" encoding="UTF-8"?>
<svg version="1.1" xmlns="http://www.w3.org/2000/svg" width="24" height="24">
<path d="M0 0 C3.125 1.875 3.125 1.875 5 5 C5.68404716 8.47723975 5.72860995 11.52771819 5 15 C2.625 18.125 2.625 18.125 0 20 C-0.66 20 -1.32 20 -2 20 C-2.33 17.69 -2.66 15.38 -3 13 C-2.34 12.67 -1.68 12.34 -1 12 C-1.33 10.02 -1.66 8.04 -2 6 C-3.98 6 -5.96 6 -8 6 C-8.33 7.98 -8.66 9.96 -9 12 C-8.34 12.33 -7.68 12.66 -7 13 C-7.33 15.31 -7.66 17.62 -8 20 C-10.89393213 18.70272008 -12.99974861 17.48210466 -15 15 C-15.99174904 10.12390056 -15.68571999 6.14286665 -13.125 1.875 C-8.70513784 -0.7769173 -5.02622846 -0.98876625 0 0 Z " fill="#FDFDFE" transform="translate(17,2)"/>
</svg>
